<svg preserveAspectRatio="none" width="100%" height="100%" overflow="visible" style="display: block;" viewBox="0 0 23.7259 24.9999" fill="none" xmlns="http://www.w3.org/2000/svg">
<path id="Icon" d="M1.52641 15.1754L0 14.0793L5.78122 4.8125L9.4591 9.11538L14.3389 1.17068L18.0168 6.69952L22.2235 0L23.7259 1.10815L18.0552 10.1393L14.4086 4.64175L9.7187 12.2764L6.0216 7.95425L1.52641 15.1754V15.1754M16.0097 20.625C16.9487 20.625 17.7423 20.3008 18.3906 19.6524C19.0388 19.0041 19.3629 18.2104 19.3629 17.2714C19.3629 16.3324 19.0388 15.5388 18.3904 14.8906C17.7421 14.2423 16.9484 13.9182 16.0094 13.9182C15.0704 13.9182 14.2768 14.2424 13.6285 14.8907C12.9803 15.5391 12.6562 16.3327 12.6562 17.2717C12.6562 18.2107 12.9803 19.0044 13.6287 19.6526C14.2771 20.3008 15.0707 20.625 16.0097 20.625V20.625M22.4206 24.9999L18.9735 21.5528C18.552 21.8605 18.0901 22.0953 17.5877 22.2571C17.0853 22.419 16.5592 22.4999 16.0096 22.4999C14.5572 22.4999 13.3228 21.9918 12.3061 20.9756C11.2895 19.9594 10.7812 18.7254 10.7812 17.2737C10.7812 15.822 11.2893 14.5873 12.3055 13.5697C13.3217 12.552 14.5557 12.0432 16.0074 12.0432C17.4592 12.0432 18.6938 12.5515 19.7115 13.5682C20.7291 14.5848 21.2379 15.8193 21.2379 17.2716C21.2379 17.8213 21.157 18.3493 20.9951 18.8557C20.8332 19.3621 20.5985 19.8261 20.2908 20.2475L23.7259 23.6947L22.4206 24.9999V24.9999" fill="var(--fill-0, #CEBDFF)" fill-opacity="0.6"/>
</svg>
